# 3ds Max Wavefront OBJ Exporter v0.99 - (c)2007 guruware
# File Created: 07.06.2023 03:08:16

mtllib ZBLU.mtl

#
# object ZBLU
#

v  0.0844 0.8434 -0.2844
v  0.0386 0.9095 -0.7327
v  0.0368 0.6523 -0.7465
v  0.0578 0.5725 -0.6635
v  0.1818 0.5685 -0.6715
v  0.2842 0.9046 -0.3406
v  0.1971 0.6340 -0.7125
v  0.2441 0.9074 -0.6897
# 8 vertices

vn 0.1746 -0.9804 -0.0911
vn -0.6858 -0.2539 -0.6821
vn -0.7256 0.1012 -0.6806
vn -0.7949 -0.1778 0.5801
vn 0.8424 -0.3034 0.4454
vn 0.7959 -0.3959 0.4581
vn 0.8110 -0.0223 -0.5847
vn 0.7806 -0.1862 -0.5966
# 8 vertex normals

vt 0.9511 0.4524 0.0000
vt 0.8068 0.4538 0.0000
vt 0.8043 0.3441 0.0000
vt 0.8281 0.3194 0.0000
vt 0.4890 0.4264 0.0000
vt 0.6337 0.3182 0.0000
vt 0.6712 0.3200 0.0000
vt 0.5718 0.4633 0.0000
vt 0.7014 0.3450 0.0000
vt 0.6780 0.4538 0.0000
vt 0.7469 0.3449 0.0000
vt 0.7656 0.4560 0.0000
# 12 texture coords

o ZBLU
g ZBLU
usemtl Material_0000c9
s 1
f 1/1/1 2/2/2 3/3/3 
f 3/3/3 4/4/4 1/1/1 
f 1/5/1 4/6/4 5/7/5 
f 5/7/5 6/8/6 1/5/1 
f 7/9/7 8/10/8 6/8/6 
f 6/8/6 5/7/5 7/9/7 
f 8/10/8 7/9/7 3/11/3 
f 3/11/3 2/12/2 8/10/8 
# 8 faces

