# 3ds Max Wavefront OBJ Exporter v0.99 - (c)2007 guruware
# File Created: 07.06.2023 03:08:53

mtllib ZBRD.mtl

#
# object ZBRD
#

v  -0.0502 0.0116 -0.4603
v  -0.0277 0.0119 -0.7151
v  -0.0322 0.1662 -0.6891
v  -0.0822 0.1970 -0.5368
v  -0.2480 0.0107 -0.4803
v  -0.2002 0.1970 -0.5624
v  -0.1771 0.1685 -0.6692
v  -0.2058 0.0110 -0.6850
v  -0.0736 0.5725 -0.6635
v  -0.0340 0.2182 -0.7450
v  -0.0555 0.5558 -0.7825
v  -0.1976 0.5685 -0.6715
v  -0.2129 0.6340 -0.6958
v  -0.0526 0.6523 -0.7465
v  -0.1942 0.5537 -0.7661
v  -0.1673 0.2161 -0.7267
# 16 vertices

vn 0.5101 -0.4276 0.7463
vn 0.5570 -0.5092 -0.6561
vn 0.8796 -0.0234 -0.4752
vn 0.4879 0.3451 0.8018
vn -0.7028 -0.4060 0.5841
vn -0.8174 0.2751 0.5061
vn -0.7779 -0.1037 -0.6197
vn -0.5984 -0.5238 -0.6062
vn 0.7949 -0.1778 0.5801
vn 0.6765 -0.3267 -0.6600
vn 0.6249 0.1653 -0.7630
vn -0.8432 -0.3011 0.4454
vn -0.8445 -0.0417 -0.5340
vn 0.7004 0.0865 -0.7085
vn -0.6631 0.1704 -0.7289
vn -0.5928 -0.3789 -0.7106
# 16 vertex normals

vt 0.8761 0.0954 0.0000
vt 0.8004 0.0954 0.0000
vt 0.8087 0.1569 0.0000
vt 0.8658 0.1699 0.0000
vt 0.6273 0.0735 0.0000
vt 0.6328 0.1578 0.0000
vt 0.6862 0.1581 0.0000
vt 0.6920 0.0949 0.0000
vt 0.7463 0.0693 0.0000
vt 0.6485 0.0155 0.0000
vt 0.5413 0.0973 0.0000
vt 0.5775 0.1682 0.0000
vt 0.8281 0.3194 0.0000
vt 0.8119 0.1763 0.0000
vt 0.7859 0.3119 0.0000
vt 0.6712 0.3200 0.0000
vt 0.6337 0.3182 0.0000
vt 0.7014 0.3450 0.0000
vt 0.7469 0.3449 0.0000
vt 0.7459 0.3183 0.0000
vt 0.7094 0.3306 0.0000
vt 0.6808 0.1744 0.0000
vt 0.7335 0.1781 0.0000
vt 0.7376 0.1572 0.0000
vt 0.8043 0.3441 0.0000
# 25 texture coords

o ZBRD
g ZBRD
usemtl Material_0000c9
s 1
f 1/1/1 2/2/2 3/3/3 
f 3/3/3 4/4/4 1/1/1 
f 5/5/5 6/6/6 7/7/7 
f 7/7/7 8/8/8 5/5/5 
f 2/9/2 5/5/5 8/8/8 
f 2/9/2 1/10/1 5/5/5 
f 1/11/1 4/12/4 6/6/6 
f 6/6/6 5/5/5 1/11/1 
f 9/13/9 4/4/4 10/14/10 
f 10/14/10 11/15/11 9/13/9 
f 12/16/12 6/6/6 4/12/4 
f 4/12/4 9/17/9 12/16/12 
f 13/18/13 14/19/14 11/20/11 
f 11/20/11 15/21/15 13/18/13 
f 16/22/16 15/21/15 11/20/11 
f 11/20/11 10/23/10 16/22/16 
f 7/7/7 16/22/16 10/23/10 
f 10/23/10 3/24/3 7/7/7 
f 8/8/8 7/7/7 3/24/3 
f 3/24/3 2/9/2 8/8/8 
f 16/22/16 6/6/6 12/16/12 
f 12/16/12 15/21/15 16/22/16 
f 6/6/6 16/22/16 7/7/7 
f 9/13/9 11/15/11 14/25/14 
f 15/21/15 12/16/12 13/18/13 
f 10/14/10 4/4/4 3/3/3 
# 26 faces

