# 3ds Max Wavefront OBJ Exporter v0.99 - (c)2007 guruware
# File Created: 07.06.2023 03:08:06

mtllib ZBRU.mtl

#
# object ZBRU
#

v  -0.1002 0.8434 -0.2844
v  -0.0736 0.5725 -0.6635
v  -0.0526 0.6523 -0.7465
v  -0.0544 0.9095 -0.7327
v  -0.3000 0.9046 -0.3406
v  -0.1976 0.5685 -0.6715
v  -0.2129 0.6340 -0.6958
v  -0.2599 0.9074 -0.6897
# 8 vertices

vn -0.1746 -0.9804 -0.0911
vn 0.7949 -0.1778 0.5801
vn 0.7004 0.0865 -0.7085
vn 0.6858 -0.2539 -0.6821
vn -0.7960 -0.3963 0.4576
vn -0.8432 -0.3011 0.4454
vn -0.8445 -0.0417 -0.5340
vn -0.7790 -0.1939 -0.5963
# 8 vertex normals

vt 0.9511 0.4524 0.0000
vt 0.8281 0.3194 0.0000
vt 0.8043 0.3441 0.0000
vt 0.8068 0.4538 0.0000
vt 0.4890 0.4264 0.0000
vt 0.5718 0.4633 0.0000
vt 0.6712 0.3200 0.0000
vt 0.6337 0.3182 0.0000
vt 0.7014 0.3450 0.0000
vt 0.6780 0.4538 0.0000
vt 0.7656 0.4560 0.0000
vt 0.7469 0.3449 0.0000
# 12 texture coords

o ZBRU
g ZBRU
usemtl Material_0000c9
s 1
f 1/1/1 2/2/2 3/3/3 
f 3/3/3 4/4/4 1/1/1 
f 1/5/1 5/6/5 6/7/6 
f 6/7/6 2/8/2 1/5/1 
f 7/9/7 6/7/6 5/6/5 
f 5/6/5 8/10/8 7/9/7 
f 8/10/8 4/11/4 3/12/3 
f 3/12/3 7/9/7 8/10/8 
# 8 faces

