# 3ds Max Wavefront OBJ Exporter v0.99 - (c)2007 guruware
# File Created: 07.06.2023 03:07:46

mtllib Ztorso.mtl

#
# object Ztorso
#

v  -0.2563 1.8324 1.2643
v  -0.1875 1.9205 1.3992
v  -0.2803 1.9868 1.3141
v  -0.1685 1.9332 1.2811
v  -0.1630 1.7110 1.2961
v  -0.0986 1.7228 1.3251
v  0.2342 1.8324 1.2643
v  0.2582 1.9868 1.3141
v  0.1654 1.9205 1.3992
v  0.1465 1.9332 1.2811
v  0.0765 1.7228 1.3251
v  0.1409 1.7110 1.2961
v  -0.0110 1.5397 0.2548
v  0.2516 1.3832 0.3953
v  0.2283 1.4541 -0.2749
v  -0.0110 1.5825 -0.2294
v  0.3307 1.0196 0.0161
v  0.3407 1.1427 -0.2681
v  0.1860 0.7635 -0.0218
v  0.1076 0.8434 -0.2844
v  -0.0110 1.6036 0.4617
v  0.0893 1.1352 0.8190
v  0.0707 1.3393 1.0093
v  -0.0110 1.2752 1.0270
v  -0.0110 0.9717 0.8187
v  0.2743 1.5622 -0.5129
v  -0.0110 1.6689 -0.5190
v  0.3048 1.0227 0.4100
v  0.1119 0.8189 0.4179
v  -0.0110 1.2206 -0.8855
v  -0.0110 1.5074 -0.8557
v  0.2474 1.4874 -0.7324
v  0.2883 1.2184 -0.8064
v  0.1409 1.7254 1.2961
v  -0.0110 1.7725 1.3196
v  -0.0110 1.6735 1.4798
v  0.1281 1.5865 1.4388
v  0.0501 1.3227 1.5573
v  -0.0110 1.4818 1.5137
v  -0.0110 1.2791 1.6246
v  -0.0110 1.1661 1.6469
v  0.0609 1.1744 1.6290
v  0.0534 1.2695 1.6017
v  0.0937 1.2878 1.2634
v  -0.0110 1.2340 1.3012
v  -0.0110 1.3525 1.1392
v  0.0725 1.4152 1.1445
v  0.1244 1.3394 1.3815
v  0.0709 1.4804 1.4777
v  0.0856 1.2129 1.4688
v  0.1608 1.5527 1.1937
v  0.1651 1.3889 1.3347
v  -0.0110 1.1400 1.3943
v  0.0899 1.1373 1.5191
v  -0.0110 1.0770 1.4224
v  -0.0110 1.0622 1.5484
v  0.0536 1.0791 1.5409
v  0.0541 1.0772 1.5373
v  -0.0110 1.0465 1.4879
v  0.0898 1.1382 1.5253
v  -0.0110 1.6946 0.8978
v  -0.0110 1.7849 1.1502
v  0.0659 1.7359 1.1521
v  0.1087 1.5861 0.9311
v  0.1737 1.4466 0.7339
v  -0.0110 1.5758 0.6910
v  0.2673 0.9074 -0.6897
v  0.0618 0.9095 -0.7327
v  0.0169 1.2202 -0.9077
v  -0.0110 1.2214 -0.9612
v  0.0087 1.5011 -0.8434
v  -0.0774 0.8183 -0.9085
v  0.0553 0.8183 -0.9085
v  0.0041 0.9217 -0.8934
v  -0.0262 0.9217 -0.8934
v  -0.0110 0.8507 -1.0106
v  -0.0110 0.9343 -0.9678
v  0.0736 0.8833 0.6578
v  0.2429 1.0460 0.7379
v  0.2362 0.9134 0.6665
v  0.2773 0.9128 0.4644
v  0.1264 1.6074 1.1443
v  -0.1077 1.2129 1.4688
v  -0.1118 1.1382 1.5253
v  -0.1464 1.3394 1.3815
v  -0.0757 1.0791 1.5409
v  -0.1120 1.1373 1.5191
v  -0.0762 1.0772 1.5373
v  0.1095 1.5129 1.4426
v  0.1276 1.5514 1.4281
v  0.1340 1.4874 1.4161
v  0.1501 1.5275 1.3858
v  0.3074 0.9046 -0.3406
v  0.1461 1.5202 1.4170
v  -0.0110 0.6125 -1.0497
v  -0.0110 1.0618 1.5431
v  -0.0110 1.8413 1.4708
v  -0.0110 1.9327 1.1832
v  -0.0110 1.8484 0.8625
v  -0.2081 0.7635 -0.0218
v  -0.3528 1.0196 0.0161
v  -0.3628 1.1427 -0.2681
v  -0.1297 0.8434 -0.2844
v  -0.0110 0.7128 -0.0339
v  -0.2737 1.3832 0.3953
v  -0.3269 1.0227 0.4100
v  -0.1340 0.8189 0.4179
v  -0.0957 0.8833 0.6578
v  -0.0933 1.3392 1.0094
v  -0.1308 1.5861 0.9311
v  -0.1958 1.4466 0.7339
v  -0.1081 1.1352 0.8190
v  -0.2504 1.4541 -0.2749
v  -0.2964 1.5622 -0.5129
v  -0.3103 1.2184 -0.8064
v  -0.2695 1.4874 -0.7324
v  -0.0755 1.2695 1.6017
v  -0.0830 1.1744 1.6290
v  -0.0722 1.3227 1.5573
v  -0.0930 1.4804 1.4777
v  -0.1158 1.2878 1.2634
v  -0.0960 1.4151 1.1446
v  -0.1872 1.3889 1.3347
v  -0.1829 1.5527 1.1937
v  -0.1484 1.6074 1.1443
v  -0.0880 1.7359 1.1521
v  -0.0839 0.9095 -0.7327
v  -0.2894 0.9074 -0.6897
v  -0.0390 1.2198 -0.9078
v  -0.0308 1.5011 -0.8434
v  -0.2650 1.0460 0.7379
v  -0.2994 0.9128 0.4644
v  -0.2583 0.9134 0.6665
v  -0.1630 1.7254 1.2961
v  -0.1502 1.5865 1.4388
v  -0.1497 1.5514 1.4281
v  -0.1316 1.5129 1.4426
v  -0.1561 1.4874 1.4161
v  -0.1722 1.5275 1.3858
v  -0.3295 0.9046 -0.3406
v  -0.1682 1.5202 1.4170
# 141 vertices

vn -0.7184 -0.4637 -0.5185
vn 0.1397 0.2756 0.9511
vn -0.6678 0.7440 -0.0217
vn 0.5929 0.5664 -0.5724
vn -0.2402 -0.9630 -0.1219
vn 0.6107 -0.7801 0.1357
vn 0.7184 -0.4637 -0.5185
vn 0.6678 0.7440 -0.0217
vn -0.1397 0.2756 0.9511
vn -0.5929 0.5664 -0.5724
vn -0.6107 -0.7801 0.1357
vn 0.2402 -0.9630 -0.1219
vn 0.0000 0.9984 -0.0557
vn 0.8634 0.5007 0.0611
vn 0.7467 0.6224 0.2347
vn 0.0000 0.9831 0.1831
vn 0.9832 -0.1824 -0.0112
vn 0.9974 -0.0059 0.0714
vn 0.5867 -0.8037 -0.0988
vn 0.1746 -0.9804 -0.0911
vn 0.0000 0.9982 -0.0600
vn 0.6323 -0.2189 0.7432
vn 0.8395 -0.3867 0.3817
vn -0.0001 -0.7161 0.6980
vn -0.0013 -0.6225 0.7826
vn 0.7422 0.6697 0.0276
vn 0.0000 0.9998 -0.0184
vn 0.9825 -0.1748 0.0650
vn 0.0964 -0.9549 -0.2810
vn 0.0000 -0.1553 -0.9879
vn 0.0000 0.5338 -0.8456
vn 0.6839 0.5020 -0.5294
vn 0.7285 -0.0015 -0.6851
vn 0.7595 0.6426 0.1015
vn 0.0000 0.9630 0.2695
vn 0.0000 0.5588 0.8293
vn 0.7390 0.1998 0.6434
vn 0.7696 0.2955 0.5660
vn 0.0000 0.3016 0.9534
vn 0.0000 0.4185 0.9082
vn 0.0000 -0.2883 0.9576
vn 0.6648 -0.1535 0.7311
vn 0.7226 0.3609 0.5895
vn 0.6138 -0.7327 -0.2937
vn 0.0000 -0.8748 -0.4845
vn 0.0037 -0.9879 -0.1551
vn 0.8494 -0.4566 -0.2648
vn 0.8980 -0.3789 0.2238
vn 0.6135 0.0854 0.7851
vn 0.9664 -0.2187 -0.1349
vn 0.9313 -0.0160 -0.3640
vn 0.9581 -0.2691 0.0982
vn 0.0000 -0.5688 -0.8224
vn 0.8863 0.0010 0.4631
vn 0.0000 -0.6925 -0.7214
vn 0.0000 -0.9949 -0.1006
vn 0.4923 -0.8329 -0.2528
vn 0.6683 -0.4869 0.5624
vn 0.0000 -0.9747 -0.2234
vn 0.8448 -0.3971 -0.3586
vn 0.0000 0.9082 -0.4185
vn 0.0000 0.9917 -0.1285
vn 0.6705 0.7138 -0.2022
vn 0.9279 0.3612 -0.0919
vn 0.9019 0.4075 0.1436
vn 0.0000 0.9734 -0.2293
vn 0.7806 -0.1862 -0.5966
vn -0.6858 -0.2539 -0.6821
vn 0.8892 0.0069 0.4575
vn 0.0002 0.1741 -0.9847
vn 0.0000 0.2504 -0.9681
vn 0.9854 -0.0101 0.1699
vn -0.8682 -0.1102 0.4839
vn 0.8682 -0.1102 0.4839
vn 0.7111 0.0615 0.7004
vn -0.7111 0.0615 0.7004
vn 0.0000 0.4394 -0.8983
vn 0.0000 0.1310 -0.9914
vn -0.1246 -0.7195 0.6832
vn 0.7570 -0.1716 0.6305
vn 0.6687 -0.2908 0.6843
vn 0.8905 -0.3188 -0.3246
vn 0.9557 0.1941 -0.2213
vn -0.9664 -0.2187 -0.1349
vn -0.8448 -0.3971 -0.3586
vn -0.8980 -0.3789 0.2238
vn -0.4923 -0.8329 -0.2528
vn -0.8863 0.0010 0.4631
vn -0.6683 -0.4869 0.5624
vn 0.6695 -0.0685 0.7396
vn 0.7898 -0.0811 0.6079
vn 0.8220 -0.1942 0.5354
vn 0.9784 0.0421 0.2024
vn 0.7959 -0.3959 0.4581
vn 0.8949 -0.0155 0.4460
vn 0.0000 -0.8992 -0.4376
vn 0.0000 -0.5132 0.8583
vn -1.0000 0.0000 -0.0000
vn -0.5867 -0.8037 -0.0988
vn -0.9832 -0.1824 -0.0112
vn -0.9971 -0.0084 0.0750
vn -0.1746 -0.9804 -0.0911
vn 0.0000 -0.9932 -0.1164
vn -0.8634 0.5007 0.0611
vn -0.9825 -0.1748 0.0650
vn -0.0964 -0.9549 -0.2810
vn 0.1246 -0.7195 0.6832
vn -0.8391 -0.3913 0.3778
vn -0.9274 0.3623 -0.0929
vn -0.9023 0.4063 0.1441
vn -0.6344 -0.2194 0.7412
vn -0.7467 0.6224 0.2347
vn -0.7288 0.6836 0.0392
vn -0.7220 -0.0119 -0.6918
vn -0.6547 0.5191 -0.5495
vn -0.7226 0.3609 0.5895
vn -0.6648 -0.1535 0.7311
vn -0.7696 0.2955 0.5660
vn -0.6135 0.0854 0.7851
vn -0.6136 -0.7333 -0.2928
vn -0.8498 -0.4566 -0.2633
vn -0.9581 -0.2691 0.0982
vn -0.9321 -0.0146 -0.3620
vn -0.9554 0.1964 -0.2204
vn -0.6705 0.7138 -0.2022
vn 0.6858 -0.2539 -0.6821
vn -0.7790 -0.1939 -0.5963
vn -0.8896 0.0078 0.4566
vn -0.9854 -0.0101 0.1699
vn -0.7560 -0.1704 0.6321
vn -0.8905 -0.3188 -0.3246
vn -0.6687 -0.2908 0.6843
vn -0.7595 0.6426 0.1015
vn -0.7390 0.1998 0.6434
vn -0.7898 -0.0811 0.6079
vn -0.6695 -0.0685 0.7396
vn -0.8220 -0.1942 0.5354
vn -0.9784 0.0421 0.2024
vn -0.7960 -0.3963 0.4576
vn -0.8949 -0.0155 0.4460
# 140 vertex normals

vt 0.9758 0.0789 0.0000
vt 0.9082 0.1278 0.0000
vt 0.9676 0.1562 0.0000
vt 0.5048 0.2699 0.0000
vt 0.5485 0.2448 0.0000
vt 0.5221 0.3267 0.0000
vt 0.9338 0.0179 0.0000
vt 0.8969 0.0282 0.0000
vt 0.4588 0.1939 0.0000
vt 0.5301 0.1767 0.0000
vt 0.4493 0.3054 0.0000
vt 0.5101 0.8983 0.0000
vt 0.4585 0.7858 0.0000
vt 0.6847 0.8174 0.0000
vt 0.6602 0.9156 0.0000
vt 0.5857 0.6485 0.0000
vt 0.6885 0.6941 0.0000
vt 0.6009 0.5566 0.0000
vt 0.6775 0.5841 0.0000
vt 0.4399 0.9071 0.0000
vt 0.2965 0.6781 0.0000
vt 0.2514 0.7666 0.0000
vt 0.2429 0.7039 0.0000
vt 0.2781 0.5707 0.0000
vt 0.7744 0.8514 0.0000
vt 0.7448 0.9571 0.0000
vt 0.4458 0.6497 0.0000
vt 0.4550 0.5447 0.0000
vt 0.9889 0.7328 0.0000
vt 0.9576 0.9313 0.0000
vt 0.8869 0.8324 0.0000
vt 0.8899 0.7204 0.0000
vt 0.1363 0.9307 0.0000
vt 0.1388 0.9935 0.0000
vt 0.0242 0.9613 0.0000
vt 0.0715 0.8915 0.0000
vt 0.0389 0.7697 0.0000
vt 0.0242 0.8336 0.0000
vt 0.0087 0.7413 0.0000
vt 0.0068 0.6930 0.0000
vt 0.0320 0.6996 0.0000
vt 0.0317 0.7417 0.0000
vt 0.1568 0.7606 0.0000
vt 0.1585 0.7172 0.0000
vt 0.2018 0.7508 0.0000
vt 0.2030 0.7952 0.0000
vt 0.1116 0.7808 0.0000
vt 0.0457 0.8311 0.0000
vt 0.0824 0.7317 0.0000
vt 0.1763 0.8674 0.0000
vt 0.1292 0.8007 0.0000
vt 0.0843 0.7307 0.0000
vt 0.1255 0.6877 0.0000
vt 0.0667 0.7032 0.0000
vt 0.1134 0.6650 0.0000
vt 0.0470 0.6503 0.0000
vt 0.0589 0.6800 0.0000
vt 0.0601 0.6793 0.0000
vt 0.0841 0.6519 0.0000
vt 0.0646 0.7036 0.0000
vt 0.2898 0.9347 0.0000
vt 0.1961 0.9589 0.0000
vt 0.1885 0.9321 0.0000
vt 0.2681 0.8764 0.0000
vt 0.3345 0.8245 0.0000
vt 0.3611 0.9049 0.0000
vt 0.8811 0.6047 0.0000
vt 0.9979 0.6040 0.0000
vt 0.4178 0.9578 0.0000
vt 0.4161 0.9291 0.0000
vt 0.3258 0.9498 0.0000
vt 0.3394 0.9732 0.0000
vt 0.5535 0.9966 0.0000
vt 0.5539 0.9483 0.0000
vt 0.5139 0.9646 0.0000
vt 0.5165 0.9792 0.0000
vt 0.5540 0.9206 0.0000
vt 0.5133 0.9314 0.0000
vt 0.3233 0.5418 0.0000
vt 0.3363 0.6507 0.0000
vt 0.3604 0.6073 0.0000
vt 0.4346 0.6052 0.0000
vt 0.1955 0.8801 0.0000
vt 0.8915 0.2656 0.0000
vt 0.9712 0.2656 0.0000
vt 0.9729 0.2207 0.0000
vt 0.8897 0.2207 0.0000
vt 0.8754 0.3398 0.0000
vt 0.9872 0.3398 0.0000
vt 0.9580 0.1918 0.0000
vt 0.9046 0.1918 0.0000
vt 0.8914 0.2657 0.0000
vt 0.9713 0.2657 0.0000
vt 0.8896 0.2218 0.0000
vt 0.9730 0.2218 0.0000
vt 0.9044 0.1918 0.0000
vt 0.9582 0.1918 0.0000
vt 0.0650 0.8511 0.0000
vt 0.0763 0.8755 0.0000
vt 0.0823 0.8326 0.0000
vt 0.1074 0.8551 0.0000
vt 0.7286 0.6070 0.0000
vt 0.8068 0.4538 0.0000
vt 0.9511 0.4524 0.0000
vt 0.7730 0.5787 0.0000
vt 0.1968 0.5608 0.0000
vt 0.2493 0.5602 0.0000
vt 0.1752 0.5948 0.0000
vt 0.6405 0.9391 0.0000
vt 0.9313 0.1828 0.0000
vt 0.9313 0.1839 0.0000
vt 0.1331 0.5408 0.0000
vt 0.1910 0.4911 0.0000
vt 0.0606 0.6312 0.0000
vt 0.0308 0.5279 0.0000
vt 0.0776 0.5043 0.0000
vt 0.0965 0.5801 0.0000
vt 0.1300 0.6544 0.0000
vt 0.0861 0.3888 0.0000
vt 0.0253 0.3878 0.0000
vt 0.1011 0.2777 0.0000
vt 0.0660 0.1833 0.0000
vt 0.0419 0.6502 0.0000
vt 0.6119 0.4868 0.0000
vt 0.3608 0.4210 0.0000
vt 0.4399 0.4431 0.0000
vt 0.4179 0.9577 0.0000
vt 0.3498 0.9965 0.0000
vt 0.4221 0.9846 0.0000
# 129 texture coords

o Ztorso
g Ztorso
usemtl Material_0000c9
s 1
f 1/1/1 2/2/2 3/3/3 
f 4/4/4 1/5/1 3/6/3 
f 1/1/1 5/7/5 6/8/6 
f 6/8/6 2/2/2 1/1/1 
f 6/9/6 5/10/5 4/4/4 
f 4/4/4 2/11/2 6/9/6 
f 3/6/3 2/11/2 4/4/4 
f 5/10/5 1/5/1 4/4/4 
f 7/1/7 8/3/8 9/2/9 
f 10/4/10 8/6/8 7/5/7 
f 7/1/7 9/2/9 11/8/11 
f 11/8/11 12/7/12 7/1/7 
f 11/9/11 10/4/10 12/10/12 
f 10/4/10 11/9/11 9/11/9 
f 8/6/8 10/4/10 9/11/9 
f 12/10/12 10/4/10 7/5/7 
f 13/12/13 14/13/14 15/14/15 
f 15/14/15 16/15/16 13/12/13 
f 17/16/17 18/17/18 15/14/15 
f 19/18/19 20/19/20 18/17/18 
f 18/17/18 17/16/17 19/18/19 
f 14/13/14 13/12/13 21/20/21 
f 22/21/22 23/22/23 24/23/24 
f 24/23/24 25/24/25 22/21/22 
f 15/14/15 26/25/26 27/26/27 
f 27/26/27 16/15/16 15/14/15 
f 19/18/19 17/16/17 28/27/28 
f 28/27/28 29/28/29 19/18/19 
f 30/29/30 31/30/31 32/31/32 
f 32/31/32 33/32/33 30/29/30 
f 34/33/34 35/34/35 36/35/36 
f 36/35/36 37/36/37 34/33/34 
f 38/37/38 39/38/39 40/39/40 
f 40/39/40 41/40/41 42/41/42 
f 42/41/42 43/42/43 40/39/40 
f 44/43/44 45/44/45 46/45/46 
f 46/45/46 47/46/47 44/43/44 
f 48/47/48 49/48/49 38/37/38 
f 38/37/38 50/49/50 48/47/48 
f 44/43/44 47/46/47 51/50/51 
f 51/50/51 52/51/52 44/43/44 
f 46/45/46 24/23/24 23/22/23 
f 23/22/23 47/46/47 46/45/46 
f 48/47/48 50/52/50 53/53/53 
f 53/53/53 45/44/45 48/47/48 
f 50/52/50 54/54/54 55/55/55 
f 55/55/55 53/53/53 50/52/50 
f 56/56/56 57/57/57 42/41/42 
f 42/41/42 41/40/41 56/56/56 
f 54/54/54 58/58/58 59/59/59 
f 59/59/59 55/55/55 54/54/54 
f 42/41/42 60/60/60 50/49/50 
f 50/49/50 43/42/43 42/41/42 
f 44/43/44 52/51/52 48/47/48 
f 18/17/18 26/25/26 15/14/15 
f 61/61/61 62/62/62 63/63/63 
f 63/63/63 64/64/64 61/61/61 
f 61/61/61 64/64/64 65/65/65 
f 65/65/65 66/66/66 61/61/61 
f 30/29/30 33/32/33 67/67/67 
f 67/67/67 68/68/68 30/29/30 
f 69/69/69 70/70/70 31/71/71 
f 31/71/71 71/72/72 69/69/69 
f 72/73/73 73/74/74 74/75/75 
f 74/75/75 75/76/76 72/73/73 
f 74/75/75 73/74/74 76/77/77 
f 76/77/77 77/78/78 74/75/75 
f 78/79/79 79/80/80 25/24/25 
f 28/27/28 79/80/80 80/81/81 
f 80/81/81 81/82/82 28/27/28 
f 66/66/66 65/65/65 14/13/14 
f 14/13/14 21/20/21 66/66/66 
f 35/34/35 34/33/34 63/63/63 
f 63/63/63 62/62/62 35/34/35 
f 63/63/63 34/33/34 51/50/51 
f 51/50/51 82/83/83 63/63/63 
f 64/64/64 63/63/63 82/83/83 
f 28/27/28 14/13/14 65/65/65 
f 65/65/65 79/80/80 28/27/28 
f 83/84/84 50/85/50 60/86/60 
f 60/86/60 84/87/85 83/84/84 
f 85/88/86 48/89/48 50/85/50 
f 50/85/50 83/84/84 85/88/86 
f 84/87/85 60/86/60 57/90/57 
f 57/90/57 86/91/87 84/87/85 
f 83/92/84 50/93/50 48/89/48 
f 48/89/48 85/88/86 83/92/84 
f 87/94/88 54/95/54 50/93/50 
f 50/93/50 83/92/84 87/94/88 
f 88/96/89 58/97/58 54/95/54 
f 54/95/54 87/94/88 88/96/89 
f 49/48/49 89/98/90 90/99/91 
f 90/99/91 37/36/37 49/48/49 
f 49/48/49 48/47/48 91/100/92 
f 91/100/92 89/98/90 49/48/49 
f 37/36/37 36/35/36 39/38/39 
f 39/38/39 49/48/49 37/36/37 
f 52/51/52 51/50/51 92/101/93 
f 67/67/67 33/32/33 18/17/18 
f 18/17/18 93/102/94 67/67/67 
f 32/31/32 31/30/31 27/26/27 
f 27/26/27 26/25/26 32/31/32 
f 68/103/68 20/104/20 30/105/30 
f 34/33/34 37/36/37 92/101/93 
f 92/101/93 51/50/51 34/33/34 
f 94/106/95 92/107/93 90/108/91 
f 60/60/60 42/41/42 57/57/57 
f 18/17/18 20/19/20 93/102/94 
f 81/82/82 29/28/29 28/27/28 
f 95/109/96 73/74/74 72/73/73 
f 95/109/96 76/77/77 73/74/74 
f 79/80/80 22/21/22 25/24/25 
f 86/91/87 57/90/57 56/110/56 
f 96/111/97 58/97/58 88/96/89 
f 50/49/50 38/37/38 43/42/43 
f 89/112/90 94/106/95 90/108/91 
f 89/112/90 91/113/92 94/106/95 
f 94/106/95 91/113/92 92/107/93 
f 97/114/98 98/115/98 62/116/98 
f 97/114/98 62/116/98 35/117/98 
f 36/118/98 97/114/98 35/117/98 
f 61/119/98 62/116/98 98/115/98 
f 61/119/98 98/115/98 99/120/98 
f 66/121/98 61/119/98 99/120/98 
f 66/121/98 99/120/98 21/122/98 
f 45/44/45 44/43/44 48/47/48 
f 58/58/58 96/123/97 59/59/59 
f 90/99/91 92/101/93 37/36/37 
f 92/101/93 91/100/92 48/47/48 
f 48/47/48 52/51/52 92/101/93 
f 47/46/47 82/83/83 51/50/51 
f 100/18/99 101/16/100 102/17/101 
f 102/17/101 103/19/102 100/18/99 
f 104/124/103 20/19/20 19/18/19 
f 105/13/104 21/20/21 13/12/13 
f 101/16/100 106/27/105 105/13/104 
f 107/125/106 29/125/29 78/126/79 
f 78/126/79 108/126/107 107/125/106 
f 109/22/108 110/64/109 111/65/110 
f 111/65/110 112/21/111 109/22/108 
f 113/14/112 16/15/16 27/26/27 
f 27/26/27 114/25/113 113/14/112 
f 13/12/13 16/15/16 113/14/112 
f 113/14/112 105/13/104 13/12/13 
f 29/28/29 107/28/106 104/124/103 
f 100/18/99 107/28/106 106/27/105 
f 106/27/105 101/16/100 100/18/99 
f 30/29/30 115/32/114 116/31/115 
f 116/31/115 31/30/31 30/29/30 
f 40/39/40 117/42/116 118/41/117 
f 118/41/117 41/40/41 40/39/40 
f 85/47/86 83/49/84 119/37/118 
f 119/37/118 120/48/119 85/47/86 
f 121/43/120 122/46/121 46/45/46 
f 46/45/46 45/44/45 121/43/120 
f 121/43/120 123/51/122 124/50/123 
f 124/50/123 122/46/121 121/43/120 
f 122/46/121 125/83/124 110/64/109 
f 110/64/109 109/22/108 122/46/121 
f 85/47/86 45/44/45 53/53/53 
f 53/53/53 83/52/84 85/47/86 
f 83/52/84 53/53/53 55/55/55 
f 55/55/55 87/54/88 83/52/84 
f 56/56/56 41/40/41 118/41/117 
f 118/41/117 86/57/87 56/56/56 
f 87/54/88 55/55/55 59/59/59 
f 59/59/59 88/58/89 87/54/88 
f 118/41/117 117/42/116 83/49/84 
f 83/49/84 84/60/85 118/41/117 
f 121/43/120 85/47/86 123/51/122 
f 61/61/61 110/64/109 126/63/125 
f 126/63/125 62/62/62 61/61/61 
f 61/61/61 66/66/66 111/65/110 
f 111/65/110 110/64/109 61/61/61 
f 30/29/30 127/68/126 128/67/127 
f 128/67/127 115/32/114 30/29/30 
f 129/127/128 130/72/129 31/71/71 
f 31/71/71 70/70/70 129/127/128 
f 129/127/128 70/70/70 77/78/78 
f 77/78/78 75/75/76 129/127/128 
f 75/75/76 77/78/78 76/77/77 
f 76/77/77 72/74/73 75/75/76 
f 25/24/25 108/79/107 78/79/79 
f 108/79/107 25/24/25 131/80/130 
f 106/27/105 132/82/131 133/81/132 
f 133/81/132 131/80/130 106/27/105 
f 66/66/66 21/20/21 105/13/104 
f 105/13/104 111/65/110 66/66/66 
f 126/63/125 125/83/124 124/50/123 
f 124/50/123 134/33/133 126/63/125 
f 110/64/109 125/83/124 126/63/125 
f 106/27/105 131/80/130 111/65/110 
f 111/65/110 105/13/104 106/27/105 
f 119/37/118 40/39/40 39/38/39 
f 120/48/119 135/36/134 136/99/135 
f 136/99/135 137/98/136 120/48/119 
f 120/48/119 137/98/136 138/100/137 
f 138/100/137 85/47/86 120/48/119 
f 135/36/134 120/48/119 39/38/39 
f 39/38/39 36/35/36 135/36/134 
f 123/51/122 139/101/138 124/50/123 
f 116/31/115 114/25/113 27/26/27 
f 27/26/27 31/30/31 116/31/115 
f 128/67/127 140/102/139 102/17/101 
f 102/17/101 115/32/114 128/67/127 
f 127/103/126 30/105/30 103/104/102 
f 20/104/20 103/104/102 30/105/30 
f 134/33/133 124/50/123 139/101/138 
f 139/101/138 135/36/134 134/33/133 
f 141/106/140 136/108/135 139/107/138 
f 84/60/85 86/57/87 118/41/117 
f 102/17/101 140/102/139 103/19/102 
f 132/82/131 106/27/105 107/28/106 
f 95/109/96 72/74/73 76/77/77 
f 131/80/130 112/21/111 111/65/110 
f 134/33/133 135/36/134 36/35/36 
f 36/35/36 35/34/35 134/33/133 
f 35/34/35 62/62/62 126/63/125 
f 126/63/125 134/33/133 35/34/35 
f 83/49/84 117/42/116 119/37/118 
f 137/112/136 136/108/135 141/106/140 
f 137/112/136 141/106/140 138/113/137 
f 141/106/140 139/107/138 138/113/137 
f 139/101/138 123/51/122 85/47/86 
f 85/47/86 138/100/137 139/101/138 
f 114/25/113 102/17/101 113/14/112 
f 45/44/45 85/47/86 121/43/120 
f 88/58/89 59/59/59 96/123/97 
f 136/99/135 135/36/134 139/101/138 
f 122/46/121 124/50/123 125/83/124 
f 71/72/72 130/128/129 129/129/128 
f 129/129/128 69/69/69 71/72/72 
f 69/69/69 74/75/75 77/78/78 
f 77/78/78 70/70/70 69/69/69 
f 119/37/118 39/38/39 120/48/119 
f 119/37/118 117/42/116 40/39/40 
f 38/37/38 40/39/40 43/42/43 
f 38/37/38 49/48/49 39/38/39 
f 104/124/103 107/28/106 100/18/99 
f 29/28/29 104/124/103 19/18/19 
f 129/129/128 75/76/76 74/75/75 
f 74/75/75 69/69/69 129/129/128 
f 108/79/107 131/80/130 133/81/132 
f 78/79/79 80/81/81 79/80/80 
f 32/31/32 26/25/26 18/17/18 
f 18/17/18 33/32/33 32/31/32 
f 115/32/114 102/17/101 114/25/113 
f 114/25/113 116/31/115 115/32/114 
f 17/16/17 14/13/14 28/27/28 
f 101/16/100 105/13/104 113/14/112 
f 101/16/100 113/14/112 102/17/101 
f 17/16/17 15/14/15 14/13/14 
f 104/124/103 103/19/102 20/19/20 
f 104/124/103 100/18/99 103/19/102 
f 79/80/80 65/65/65 22/21/22 
f 65/65/65 64/64/64 23/22/23 
f 23/22/23 22/21/22 65/65/65 
f 64/64/64 82/83/83 47/46/47 
f 47/46/47 23/22/23 64/64/64 
f 131/80/130 25/24/25 112/21/111 
f 112/21/111 25/24/25 24/23/24 
f 24/23/24 109/22/108 112/21/111 
f 109/22/108 24/23/24 46/45/46 
f 46/45/46 122/46/121 109/22/108 
# 264 faces

