# 3ds Max Wavefront OBJ Exporter v0.99 - (c)2007 guruware
# File Created: 03.06.2023 01:11:25

mtllib wall_1.mtl

#
# object Box002
#

v  1625.0088 0.0000 -2377.8472
v  1625.0088 0.0000 -2370.8940
v  -1627.8105 0.0000 -2370.8940
v  -1627.8105 0.0000 -2377.8472
v  1625.0088 249.4465 -2377.8472
v  -1627.8105 249.4465 -2377.8472
v  -1627.8105 249.4465 -2370.8940
v  1625.0088 249.4465 -2370.8940
v  -1625.5872 0.0000 2387.8970
v  -1632.5405 0.0000 2387.8970
v  -1632.5403 0.0000 -2378.3347
v  -1625.5869 0.0000 -2378.3347
v  -1625.5872 249.4465 2387.8970
v  -1625.5869 249.4465 -2378.3347
v  -1632.5403 249.4465 -2378.3347
v  -1632.5405 249.4465 2387.8970
v  1625.0088 0.0000 2375.3794
v  1625.0088 0.0000 2382.3325
v  -1627.8105 0.0000 2382.3325
v  -1627.8105 0.0000 2375.3794
v  1625.0088 249.4465 2375.3794
v  -1627.8105 249.4465 2375.3794
v  -1627.8105 249.4465 2382.3325
v  1625.0088 249.4465 2382.3325
v  1626.6355 0.0000 2387.8970
v  1619.6821 0.0000 2387.8970
v  1619.6824 0.0000 -2378.3347
v  1626.6357 0.0000 -2378.3347
v  1626.6355 249.4465 2387.8970
v  1626.6357 249.4465 -2378.3347
v  1619.6824 249.4465 -2378.3347
v  1619.6821 249.4465 2387.8970
# 32 vertices

vn 0.0000 -1.0000 -0.0000
vn 0.0000 1.0000 -0.0000
vn 0.0000 0.0000 1.0000
vn 1.0000 0.0000 -0.0000
vn 0.0000 0.0000 -1.0000
vn -1.0000 0.0000 -0.0000
vn 1.0000 0.0000 0.0000
# 7 vertex normals

vt -1.7279 5.3752 -0.0000
vt -1.7279 5.3610 -0.0000
vt 2.7236 5.3610 -0.0000
vt 2.7236 5.3752 -0.0000
vt 2.7279 5.3752 1.0000
vt -1.7236 5.3752 1.0000
vt -1.7236 5.3610 1.0000
vt 2.7279 5.3610 1.0000
vt 2.7279 1.0000 5.3610
vt -1.7236 1.0000 5.3610
vt -1.7236 -0.0000 5.3610
vt 2.7279 -0.0000 5.3610
vt 5.3752 1.0000 2.7279
vt 5.3610 1.0000 2.7279
vt 5.3610 -0.0000 2.7279
vt 5.3752 -0.0000 2.7279
vt 2.7236 1.0000 5.3752
vt -1.7279 1.0000 5.3752
vt -1.7279 -0.0000 5.3752
vt 2.7236 -0.0000 5.3752
vt -4.3610 1.0000 -1.7236
vt -4.3752 1.0000 -1.7236
vt -4.3752 -0.0000 -1.7236
vt -4.3610 -0.0000 -1.7236
vt 2.7206 -4.3762 -0.0000
vt 2.7301 -4.3762 -0.0000
vt 2.7301 5.3762 -0.0000
vt 2.7206 5.3762 -0.0000
vt -1.7206 -4.3762 1.0000
vt -1.7206 5.3762 1.0000
vt -1.7301 5.3762 1.0000
vt -1.7301 -4.3762 1.0000
vt 5.3762 1.0000 -1.7301
vt -4.3762 1.0000 -1.7301
vt -4.3762 -0.0000 -1.7301
vt 5.3762 -0.0000 -1.7301
vt -1.7206 1.0000 -4.3762
vt -1.7301 1.0000 -4.3762
vt -1.7301 -0.0000 -4.3762
vt -1.7206 -0.0000 -4.3762
vt 5.3762 1.0000 -1.7206
vt -4.3762 1.0000 -1.7206
vt -4.3762 -0.0000 -1.7206
vt 5.3762 -0.0000 -1.7206
vt 2.7301 1.0000 5.3762
vt 2.7206 1.0000 5.3762
vt 2.7206 -0.0000 5.3762
vt 2.7301 -0.0000 5.3762
vt -1.7278 -4.3506 -0.0000
vt -1.7278 -4.3648 -0.0000
vt 2.7236 -4.3648 -0.0000
vt 2.7236 -4.3506 -0.0000
vt 2.7278 -4.3506 1.0000
vt -1.7236 -4.3506 1.0000
vt -1.7236 -4.3648 1.0000
vt 2.7278 -4.3648 1.0000
vt 2.7278 1.0000 -4.3648
vt -1.7236 1.0000 -4.3648
vt -1.7236 -0.0000 -4.3648
vt 2.7278 -0.0000 -4.3648
vt -4.3506 1.0000 2.7278
vt -4.3648 1.0000 2.7278
vt -4.3648 -0.0000 2.7278
vt -4.3506 -0.0000 2.7278
vt 2.7236 1.0000 -4.3506
vt -1.7278 1.0000 -4.3506
vt -1.7278 -0.0000 -4.3506
vt 2.7236 -0.0000 -4.3506
vt 5.3648 1.0000 -1.7236
vt 5.3506 1.0000 -1.7236
vt 5.3506 -0.0000 -1.7236
vt 5.3648 -0.0000 -1.7236
vt -1.7301 -4.3762 -0.0000
vt -1.7206 -4.3762 -0.0000
vt -1.7206 5.3762 -0.0000
vt -1.7301 5.3762 -0.0000
vt 2.7301 -4.3762 1.0000
vt 2.7301 5.3762 1.0000
vt 2.7206 5.3762 1.0000
vt 2.7206 -4.3762 1.0000
vt 5.3762 1.0000 2.7206
vt -4.3762 1.0000 2.7206
vt -4.3762 -0.0000 2.7206
vt 5.3762 -0.0000 2.7206
vt 2.7301 1.0000 -4.3762
vt 2.7206 1.0000 -4.3762
vt 2.7206 -0.0000 -4.3762
vt 2.7301 -0.0000 -4.3762
vt 5.3762 1.0000 2.7301
vt -4.3762 1.0000 2.7301
vt -4.3762 -0.0000 2.7301
vt 5.3762 -0.0000 2.7301
vt -1.7206 1.0000 5.3762
vt -1.7301 1.0000 5.3762
vt -1.7301 -0.0000 5.3762
vt -1.7206 -0.0000 5.3762
# 96 texture coords

o Box002
g Box002
usemtl 19___Default
s 2
f 1/1/1 2/2/1 3/3/1 
f 3/3/1 4/4/1 1/1/1 
s 4
f 5/5/2 6/6/2 7/7/2 
f 7/7/2 8/8/2 5/5/2 
s 8
f 8/9/3 7/10/3 3/11/3 
f 3/11/3 2/12/3 8/9/3 
s 16
f 5/13/4 8/14/4 2/15/4 
f 2/15/4 1/16/4 5/13/4 
s 32
f 6/17/5 5/18/5 1/19/5 
f 1/19/5 4/20/5 6/17/5 
s 64
f 7/21/6 6/22/6 4/23/6 
f 4/23/6 3/24/6 7/21/6 
s 2
f 9/25/1 10/26/1 11/27/1 
f 11/27/1 12/28/1 9/25/1 
s 4
f 13/29/2 14/30/2 15/31/2 
f 15/31/2 16/32/2 13/29/2 
s 8
f 16/33/6 15/34/6 11/35/6 
f 11/35/6 10/36/6 16/33/6 
s 16
f 13/37/3 16/38/3 10/39/3 
f 10/39/3 9/40/3 13/37/3 
s 32
f 14/41/7 13/42/7 9/43/7 
f 9/43/7 12/44/7 14/41/7 
s 64
f 15/45/5 14/46/5 12/47/5 
f 12/47/5 11/48/5 15/45/5 
s 2
f 17/49/1 18/50/1 19/51/1 
f 19/51/1 20/52/1 17/49/1 
s 4
f 21/53/2 22/54/2 23/55/2 
f 23/55/2 24/56/2 21/53/2 
s 8
f 24/57/3 23/58/3 19/59/3 
f 19/59/3 18/60/3 24/57/3 
s 16
f 21/61/4 24/62/4 18/63/4 
f 18/63/4 17/64/4 21/61/4 
s 32
f 22/65/5 21/66/5 17/67/5 
f 17/67/5 20/68/5 22/65/5 
s 64
f 23/69/6 22/70/6 20/71/6 
f 20/71/6 19/72/6 23/69/6 
s 2
f 25/73/1 26/74/1 27/75/1 
f 27/75/1 28/76/1 25/73/1 
s 4
f 29/77/2 30/78/2 31/79/2 
f 31/79/2 32/80/2 29/77/2 
s 8
f 32/81/6 31/82/6 27/83/6 
f 27/83/6 26/84/6 32/81/6 
s 16
f 29/85/3 32/86/3 26/87/3 
f 26/87/3 25/88/3 29/85/3 
s 32
f 30/89/7 29/90/7 25/91/7 
f 25/91/7 28/92/7 30/89/7 
s 64
f 31/93/5 30/94/5 28/95/5 
f 28/95/5 27/96/5 31/93/5 
# 48 faces

