# 3ds Max Wavefront OBJ Exporter v0.99 - (c)2007 guruware
# File Created: 07.06.2023 02:15:22

mtllib WolfHead.mtl

#
# object WHead
#

v  30.7556 7.2925 -1.9943
v  31.2879 7.2862 -2.3486
v  30.8904 7.0174 -2.2750
v  31.1786 7.5393 -2.0327
v  30.6618 7.5137 -1.5249
v  31.0865 7.6741 -1.5249
v  31.7699 5.9992 -2.0685
v  31.9678 5.7044 -1.5249
v  31.8544 5.4096 -1.5249
v  31.5945 5.7001 -2.1206
v  31.3196 6.0967 -2.3734
v  31.5723 6.4262 -2.3510
v  31.4284 6.8535 -2.4091
v  31.0714 6.5722 -2.3444
v  33.1982 6.8304 -1.7212
v  33.2062 6.8454 -1.5249
v  33.1451 6.8384 -1.5249
v  33.0987 6.8270 -1.7517
v  33.4928 6.8469 -1.6674
v  33.4977 6.8488 -1.5249
v  33.6886 6.8868 -1.6371
v  33.6994 6.8765 -1.5249
v  33.2013 6.8657 -1.8779
v  33.0925 6.8190 -1.9543
v  33.4923 6.8866 -1.7816
v  33.6363 6.9002 -1.7222
v  33.2227 7.4512 -1.5249
v  33.0099 7.5753 -1.7102
v  33.0172 7.6083 -1.5249
v  33.2227 7.4386 -1.6918
v  33.5190 7.4026 -1.5249
v  33.5166 7.3798 -1.6603
v  33.8926 7.3692 -1.5249
v  33.8670 7.3427 -1.6321
v  33.2220 7.3249 -1.8464
v  32.9158 7.4490 -1.9303
v  33.5141 7.2970 -1.7698
v  33.8144 7.2597 -1.6918
v  33.8379 7.0032 -1.5249
v  33.8056 7.0090 -1.6343
v  33.7062 7.0009 -1.7377
v  33.8870 7.1549 -1.6305
v  33.9060 7.1536 -1.5249
v  33.7686 7.1378 -1.7182
v  33.5057 7.0222 -1.8146
v  33.2180 7.0306 -1.9134
v  33.0619 7.0092 -1.9941
v  33.5140 7.1623 -1.8050
v  33.2104 7.1823 -1.8878
v  33.0337 7.2033 -1.9730
v  32.8319 7.8825 -1.7397
v  32.8288 7.8617 -1.5249
v  32.8018 7.8178 -1.9969
v  32.3169 8.1217 -1.7101
v  32.3117 8.0618 -1.5249
v  32.3369 8.1607 -1.7993
v  31.9459 8.1127 -1.5249
v  31.9642 8.1399 -1.7359
v  32.0111 8.1541 -1.8799
v  31.5200 8.0505 -1.7544
v  31.4945 8.0240 -1.5249
v  31.5582 7.9296 -2.1179
v  32.7598 7.3287 -2.1791
v  32.6755 7.6299 -2.2514
v  32.2647 7.8416 -2.3916
v  32.2121 8.5925 -2.3232
v  32.2290 8.5996 -2.1655
v  32.2778 8.6193 -2.1738
v  32.2600 8.6073 -2.3257
v  31.9781 7.9076 -2.3577
v  31.6321 7.6942 -2.4165
v  32.4514 7.4376 -2.4389
v  32.5543 7.1411 -2.3336
v  32.9437 6.7837 -2.0466
v  32.8711 6.9333 -2.1083
v  32.6452 6.8037 -2.1876
v  32.7044 6.5187 -2.0095
v  33.1399 6.8262 -1.5249
v  33.1064 6.8238 -1.7427
v  33.2189 6.8190 -1.5249
v  33.2041 6.8166 -1.7347
v  32.2814 6.5869 -2.2063
v  32.3374 6.3327 -1.9649
v  32.7227 6.3540 -1.5249
v  32.3924 6.1597 -1.5249
v  32.0706 6.1515 -1.9253
v  31.9735 6.3812 -2.1261
v  32.1425 5.9264 -1.5249
v  32.2246 6.8587 -2.4384
v  32.1245 7.2122 -2.5485
v  31.7412 7.0757 -2.5298
v  31.8639 6.7144 -2.4345
v  32.2456 8.5138 -2.4231
v  32.1921 8.5050 -2.4095
v  30.7556 7.2925 -1.0554
v  30.8904 7.0174 -0.7748
v  31.2879 7.2862 -0.7012
v  31.1786 7.5393 -1.0171
v  31.7699 5.9992 -0.9812
v  31.5945 5.7001 -0.9292
v  31.3196 6.0967 -0.6764
v  31.5723 6.4262 -0.6988
v  31.4284 6.8535 -0.6406
v  31.0714 6.5722 -0.7053
v  33.1982 6.8304 -1.3286
v  33.0987 6.8270 -1.2980
v  33.4928 6.8469 -1.3823
v  33.6886 6.8868 -1.4127
v  33.2013 6.8657 -1.1719
v  33.0925 6.8190 -1.0954
v  33.4923 6.8866 -1.2682
v  33.6363 6.9002 -1.3275
v  33.0099 7.5753 -1.3396
v  33.2227 7.4386 -1.3580
v  33.5166 7.3798 -1.3895
v  33.8670 7.3427 -1.4177
v  33.2220 7.3249 -1.2034
v  32.9158 7.4490 -1.1195
v  33.5141 7.2970 -1.2800
v  33.8144 7.2597 -1.3579
v  33.8056 7.0090 -1.4155
v  33.7062 7.0009 -1.3120
v  33.8870 7.1549 -1.4192
v  33.7686 7.1378 -1.3315
v  33.5057 7.0222 -1.2351
v  33.2180 7.0306 -1.1364
v  33.0619 7.0092 -1.0557
v  33.5140 7.1623 -1.2448
v  33.2104 7.1823 -1.1619
v  33.0337 7.2033 -1.0767
v  32.8319 7.8825 -1.3101
v  32.8018 7.8178 -1.0529
v  32.3169 8.1217 -1.3397
v  32.3369 8.1607 -1.2505
v  31.9642 8.1399 -1.3138
v  32.0111 8.1541 -1.1699
v  31.5200 8.0505 -1.2954
v  31.5582 7.9296 -0.9319
v  32.6755 7.6299 -0.7983
v  32.7598 7.3287 -0.8707
v  32.2647 7.8416 -0.6582
v  32.2121 8.5925 -0.7265
v  32.2778 8.6193 -0.8760
v  32.2290 8.5996 -0.8843
v  32.2600 8.6073 -0.7241
v  31.9781 7.9076 -0.6920
v  31.6321 7.6942 -0.6333
v  32.4514 7.4376 -0.6109
v  32.5543 7.1411 -0.7162
v  32.9437 6.7837 -1.0032
v  32.8711 6.9333 -0.9414
v  32.6452 6.8037 -0.8622
v  32.7044 6.5187 -1.0403
v  33.1064 6.8238 -1.3071
v  33.2041 6.8166 -1.3150
v  33.5208 6.7733 -1.3416
v  32.2814 6.5869 -0.8435
v  32.3374 6.3327 -1.0849
v  32.0706 6.1515 -1.1245
v  31.9735 6.3812 -0.9237
v  32.2246 6.8587 -0.6113
v  32.1245 7.2122 -0.5012
v  31.7412 7.0757 -0.5199
v  31.8639 6.7144 -0.6153
v  32.2456 8.5138 -0.6267
v  32.1921 8.5050 -0.6402
# 166 vertices

vn -0.4114 0.6966 -0.5877
vn -0.4326 0.3000 -0.8502
vn -0.2439 0.3761 -0.8939
vn -0.5698 0.6529 -0.4989
vn -0.4690 0.8832 -0.0000
vn -0.5529 0.8333 -0.0000
vn 0.5932 -0.3936 -0.7023
vn 0.8675 -0.4975 -0.0000
vn 0.8673 -0.4977 -0.0000
vn 0.6622 -0.2821 -0.6941
vn 0.3210 -0.0870 -0.9431
vn 0.2019 -0.2753 -0.9399
vn -0.2185 -0.0488 -0.9746
vn -0.0001 0.1091 -0.9940
vn 0.0783 -0.9936 -0.0808
vn 0.0719 -0.9974 -0.0000
vn 0.5345 -0.8452 -0.0000
vn 0.9701 -0.1415 -0.1974
vn 0.1379 -0.9793 -0.1480
vn 0.0974 -0.9952 -0.0000
vn 0.4801 -0.8311 -0.2806
vn 0.4327 -0.9015 -0.0000
vn 0.4090 -0.6918 -0.5951
vn 0.7180 -0.2869 -0.6342
vn 0.2762 -0.6770 -0.6821
vn 0.4220 -0.6975 -0.5792
vn 0.3787 0.9255 -0.0000
vn 0.7334 0.5978 -0.3235
vn 0.7482 0.6634 -0.0000
vn 0.3866 0.8573 -0.3399
vn 0.1434 0.9897 -0.0000
vn 0.1702 0.9017 -0.3975
vn 0.7148 0.6994 -0.0000
vn 0.6123 0.5807 -0.5366
vn 0.3640 0.5077 -0.7809
vn 0.6990 0.3499 -0.6236
vn 0.2433 0.5290 -0.8130
vn 0.4756 0.1930 -0.8582
vn 0.8147 -0.5799 -0.0000
vn 0.7346 -0.5216 -0.4339
vn 0.5233 -0.3135 -0.7924
vn 0.8629 -0.1607 -0.4791
vn 0.9841 -0.1777 -0.0000
vn 0.4770 -0.0400 -0.8780
vn 0.3285 -0.1057 -0.9386
vn 0.3849 -0.0309 -0.9224
vn 0.4940 0.0280 -0.8690
vn 0.2986 0.1455 -0.9432
vn 0.3634 0.2024 -0.9094
vn 0.5052 0.2234 -0.8336
vn 0.6733 0.7344 -0.0859
vn 0.6338 0.7735 -0.0000
vn 0.6958 0.5526 -0.4589
vn 0.2171 0.9139 0.3431
vn 0.2547 0.9670 -0.0000
vn 0.4244 0.8697 0.2521
vn -0.0725 0.9974 -0.0000
vn -0.1468 0.9881 0.0453
vn -0.4447 0.8909 0.0922
vn -0.4470 0.8818 -0.1506
vn -0.4581 0.8889 -0.0000
vn -0.4880 0.7457 -0.4536
vn 0.6841 0.0792 -0.7250
vn 0.6488 0.2719 -0.7108
vn 0.3393 0.3098 -0.8882
vn -0.6276 0.7297 -0.2714
vn -0.5135 0.7492 0.4184
vn 0.5054 0.8208 0.2660
vn 0.4968 0.7783 -0.3840
vn -0.3283 0.4292 -0.8414
vn -0.3397 0.4146 -0.8442
vn 0.4324 0.0767 -0.8984
vn 0.5174 -0.1335 -0.8452
vn 0.4520 -0.2509 -0.8560
vn 0.5061 -0.0811 -0.8586
vn 0.3992 -0.3607 -0.8429
vn 0.3414 -0.6945 -0.6334
vn 0.8312 0.5560 -0.0000
vn 0.3266 0.9357 -0.1337
vn 0.1154 0.9933 -0.0000
vn 0.1391 0.9659 -0.2182
vn 0.2700 -0.5866 -0.7636
vn 0.3834 -0.7249 -0.5723
vn 0.3828 -0.9238 -0.0000
vn 0.6056 -0.7958 -0.0000
vn 0.4819 -0.6172 -0.6220
vn 0.4113 -0.5218 -0.7474
vn 0.7202 -0.6937 -0.0000
vn 0.2875 -0.3795 -0.8794
vn 0.1224 -0.0113 -0.9924
vn -0.1381 -0.0432 -0.9895
vn 0.1453 -0.3909 -0.9089
vn 0.4470 0.3280 -0.8322
vn -0.6343 0.3558 -0.6863
vn -0.4114 0.6966 0.5877
vn -0.2439 0.3761 0.8939
vn -0.4326 0.3000 0.8502
vn -0.5698 0.6529 0.4989
vn 0.5932 -0.3936 0.7023
vn 0.6622 -0.2821 0.6941
vn 0.3210 -0.0870 0.9431
vn 0.2019 -0.2753 0.9399
vn -0.2185 -0.0488 0.9746
vn -0.0001 0.1091 0.9940
vn 0.0783 -0.9936 0.0808
vn 0.9701 -0.1415 0.1974
vn 0.1379 -0.9793 0.1480
vn 0.4801 -0.8311 0.2806
vn 0.4090 -0.6918 0.5951
vn 0.7180 -0.2869 0.6342
vn 0.2762 -0.6770 0.6821
vn 0.4220 -0.6975 0.5792
vn 0.7334 0.5978 0.3235
vn 0.3866 0.8573 0.3399
vn 0.1702 0.9017 0.3975
vn 0.6123 0.5807 0.5366
vn 0.3640 0.5077 0.7809
vn 0.6990 0.3499 0.6236
vn 0.2433 0.5290 0.8130
vn 0.4756 0.1930 0.8582
vn 0.7346 -0.5216 0.4339
vn 0.5233 -0.3135 0.7924
vn 0.8629 -0.1607 0.4791
vn 0.4770 -0.0400 0.8780
vn 0.3285 -0.1057 0.9386
vn 0.3849 -0.0309 0.9224
vn 0.4940 0.0280 0.8690
vn 0.2986 0.1455 0.9432
vn 0.3634 0.2024 0.9094
vn 0.5052 0.2234 0.8336
vn 0.6733 0.7344 0.0859
vn 0.6958 0.5526 0.4589
vn 0.2171 0.9139 -0.3431
vn 0.4244 0.8697 -0.2521
vn -0.1468 0.9881 -0.0453
vn -0.4447 0.8909 -0.0922
vn -0.4470 0.8818 0.1506
vn -0.4880 0.7457 0.4536
vn 0.6488 0.2719 0.7108
vn 0.6841 0.0792 0.7250
vn 0.3393 0.3098 0.8882
vn -0.6276 0.7297 0.2714
vn 0.5054 0.8208 -0.2660
vn -0.5135 0.7492 -0.4184
vn 0.4968 0.7783 0.3840
vn -0.3283 0.4292 0.8414
vn -0.3397 0.4146 0.8442
vn 0.4324 0.0767 0.8984
vn 0.5174 -0.1335 0.8452
vn 0.4520 -0.2509 0.8560
vn 0.5061 -0.0811 0.8586
vn 0.3992 -0.3607 0.8429
vn 0.3414 -0.6945 0.6334
vn 0.3266 0.9357 0.1337
vn 0.1391 0.9659 0.2182
vn 0.3941 0.8246 0.4058
vn 0.2700 -0.5866 0.7636
vn 0.3834 -0.7249 0.5723
vn 0.4819 -0.6172 0.6220
vn 0.4113 -0.5218 0.7474
vn 0.2875 -0.3795 0.8794
vn 0.1224 -0.0113 0.9924
vn -0.1381 -0.0432 0.9895
vn 0.1453 -0.3909 0.9089
vn 0.4470 0.3280 0.8322
vn -0.6343 0.3558 0.6863
# 166 vertex normals

vt 0.3206 0.8825 0.0000
vt 0.2685 0.8781 0.0000
vt 0.3050 0.8477 0.0000
vt 0.2823 0.9064 0.0000
vt 0.3341 0.9292 0.0000
vt 0.2977 0.9537 0.0000
vt 0.2069 0.7644 0.0000
vt 0.1556 0.7470 0.0000
vt 0.1598 0.7242 0.0000
vt 0.2175 0.7374 0.0000
vt 0.2527 0.7679 0.0000
vt 0.2362 0.8032 0.0000
vt 0.2498 0.8364 0.0000
vt 0.2823 0.8079 0.0000
vt 0.0730 0.8672 0.0000
vt 0.0689 0.8645 0.0000
vt 0.0745 0.8638 0.0000
vt 0.0822 0.8629 0.0000
vt 0.0445 0.8717 0.0000
vt 0.0386 0.8683 0.0000
vt 0.0226 0.8795 0.0000
vt 0.0181 0.8789 0.0000
vt 0.0777 0.8701 0.0000
vt 0.0883 0.8621 0.0000
vt 0.0492 0.8762 0.0000
vt 0.0296 0.8812 0.0000
vt 0.0760 0.9405 0.0000
vt 0.1013 0.9393 0.0000
vt 0.0975 0.9559 0.0000
vt 0.0797 0.9341 0.0000
vt 0.0509 0.9328 0.0000
vt 0.0532 0.9300 0.0000
vt 0.0116 0.9354 0.0000
vt 0.0172 0.9276 0.0000
vt 0.0818 0.9192 0.0000
vt 0.1137 0.9201 0.0000
vt 0.0557 0.9198 0.0000
vt 0.0200 0.9207 0.0000
vt 0.0066 0.8940 0.0000
vt 0.0122 0.8939 0.0000
vt 0.0232 0.8920 0.0000
vt 0.0077 0.9115 0.0000
vt 0.0034 0.9114 0.0000
vt 0.0199 0.9084 0.0000
vt 0.0528 0.8892 0.0000
vt 0.0802 0.8854 0.0000
vt 0.0968 0.8805 0.0000
vt 0.0545 0.9027 0.0000
vt 0.0808 0.8999 0.0000
vt 0.1026 0.8967 0.0000
vt 0.1270 0.9591 0.0000
vt 0.1165 0.9737 0.0000
vt 0.1396 0.9420 0.0000
vt 0.1816 0.9761 0.0000
vt 0.1764 0.9941 0.0000
vt 0.1839 0.9549 0.0000
vt 0.2149 0.9886 0.0000
vt 0.2134 0.9715 0.0000
vt 0.2102 0.9537 0.0000
vt 0.2532 0.9564 0.0000
vt 0.2581 0.9837 0.0000
vt 0.2491 0.9372 0.0000
vt 0.1339 0.8999 0.0000
vt 0.1524 0.9180 0.0000
vt 0.1924 0.9218 0.0000
vt 0.0801 0.1295 0.0000
vt 0.0597 0.1302 0.0000
vt 0.0561 0.1238 0.0000
vt 0.0792 0.1285 0.0000
vt 0.2115 0.9222 0.0000
vt 0.2398 0.9055 0.0000
vt 0.1688 0.8959 0.0000
vt 0.1542 0.8764 0.0000
vt 0.1055 0.8575 0.0000
vt 0.1164 0.8707 0.0000
vt 0.1363 0.8534 0.0000
vt 0.1206 0.8284 0.0000
vt 0.8745 0.1880 0.0000
vt 0.9330 0.1073 0.0000
vt 0.9444 0.1110 0.0000
vt 0.8798 0.1947 0.0000
vt 0.9889 0.0331 0.0000
vt 0.8504 0.1755 0.0000
vt 0.8998 0.0963 0.0000
vt 0.1610 0.8275 0.0000
vt 0.1503 0.8010 0.0000
vt 0.0984 0.7974 0.0000
vt 0.1268 0.7798 0.0000
vt 0.1708 0.7828 0.0000
vt 0.1903 0.8039 0.0000
vt 0.1477 0.7612 0.0000
vt 0.1793 0.8484 0.0000
vt 0.1970 0.8746 0.0000
vt 0.2255 0.8581 0.0000
vt 0.2089 0.8323 0.0000
vt 0.0513 0.2144 0.0000
vt 0.0095 0.1898 0.0000
vt 0.0192 0.0223 0.0000
vt 0.1358 0.0163 0.0000
vt 0.1062 0.1190 0.0000
vt 0.1030 0.1336 0.0000
vt 0.1741 0.1855 0.0000
vt 0.1323 0.2057 0.0000
vt 0.7856 0.0557 0.0000
# 104 texture coords

o WHead
g WHead
usemtl wolf
s off
f 1/1/1 2/2/2 3/3/3 
f 2/2/2 1/1/1 4/4/4 
f 5/5/5 4/4/4 1/1/1 
f 4/4/4 5/5/5 6/6/6 
f 7/7/7 8/8/8 9/9/9 
f 9/9/9 10/10/10 7/7/7 
f 11/11/11 7/7/7 10/10/10 
f 7/7/7 11/11/11 12/12/12 
f 13/13/13 12/12/12 11/11/11 
f 13/13/13 14/14/14 3/3/3 
f 15/15/15 16/16/16 17/17/17 
f 17/17/17 18/18/18 15/15/15 
f 19/19/19 20/20/20 16/16/16 
f 16/16/16 15/15/15 19/19/19 
f 21/21/21 22/22/22 20/20/20 
f 20/20/20 19/19/19 21/21/21 
f 23/23/23 15/15/15 18/18/18 
f 18/18/18 24/24/24 23/23/23 
f 25/25/25 19/19/19 15/15/15 
f 15/15/15 23/23/23 25/25/25 
f 26/26/26 21/21/21 19/19/19 
f 19/19/19 25/25/25 26/26/26 
f 27/27/27 28/28/28 29/29/29 
f 28/28/28 27/27/27 30/30/30 
f 31/31/31 30/30/30 27/27/27 
f 30/30/30 31/31/31 32/32/32 
f 33/33/33 32/32/32 31/31/31 
f 32/32/32 33/33/33 34/34/34 
f 35/35/35 36/36/36 28/28/28 
f 28/28/28 30/30/30 35/35/35 
f 37/37/37 35/35/35 30/30/30 
f 30/30/30 32/32/32 37/37/37 
f 34/34/34 37/37/37 32/32/32 
f 37/37/37 34/34/34 38/38/38 
f 21/21/21 39/39/39 22/22/22 
f 39/39/39 21/21/21 40/40/40 
f 21/21/21 41/41/41 40/40/40 
f 41/41/41 21/21/21 26/26/26 
f 42/42/42 43/43/43 39/39/39 
f 39/39/39 40/40/40 42/42/42 
f 41/41/41 42/42/42 40/40/40 
f 42/42/42 41/41/41 44/44/44 
f 42/42/42 33/33/33 43/43/43 
f 33/33/33 42/42/42 34/34/34 
f 38/38/38 34/34/34 42/42/42 
f 42/42/42 44/44/44 38/38/38 
f 25/25/25 41/41/41 26/26/26 
f 41/41/41 25/25/25 45/45/45 
f 23/23/23 45/45/45 25/25/25 
f 45/45/45 23/23/23 46/46/46 
f 47/47/47 46/46/46 23/23/23 
f 23/23/23 24/24/24 47/47/47 
f 45/45/45 44/44/44 41/41/41 
f 44/44/44 45/45/45 48/48/48 
f 46/46/46 48/48/48 45/45/45 
f 48/48/48 46/46/46 49/49/49 
f 50/50/50 49/49/49 46/46/46 
f 46/46/46 47/47/47 50/50/50 
f 48/48/48 37/37/37 38/38/38 
f 38/38/38 44/44/44 48/48/48 
f 35/35/35 37/37/37 48/48/48 
f 48/48/48 49/49/49 35/35/35 
f 50/50/50 35/35/35 49/49/49 
f 35/35/35 50/50/50 36/36/36 
f 51/51/51 52/52/52 29/29/29 
f 29/29/29 28/28/28 51/51/51 
f 53/53/53 51/51/51 28/28/28 
f 28/28/28 36/36/36 53/53/53 
f 54/54/54 55/55/55 52/52/52 
f 52/52/52 51/51/51 54/54/54 
f 56/56/56 54/54/54 51/51/51 
f 51/51/51 53/53/53 56/56/56 
f 54/54/54 57/57/57 55/55/55 
f 57/57/57 54/54/54 58/58/58 
f 56/56/56 58/58/58 54/54/54 
f 58/58/58 56/56/56 59/59/59 
f 57/57/57 60/60/60 61/61/61 
f 60/60/60 57/57/57 58/58/58 
f 58/58/58 59/59/59 62/62/62 
f 62/62/62 60/60/60 58/58/58 
f 36/36/36 63/63/63 64/64/64 
f 64/64/64 53/53/53 36/36/36 
f 53/53/53 65/65/65 56/56/56 
f 65/65/65 53/53/53 64/64/64 
f 66/66/66 67/67/67 68/68/68 
f 68/68/68 69/69/69 66/66/66 
f 70/70/70 71/71/71 62/62/62 
f 62/62/62 59/59/59 70/70/70 
f 63/63/63 72/72/72 64/64/64 
f 72/72/72 63/63/63 73/73/73 
f 65/65/65 64/64/64 72/72/72 
f 74/74/74 75/75/75 47/47/47 
f 47/47/47 24/24/24 74/74/74 
f 75/75/75 63/63/63 50/50/50 
f 50/50/50 47/47/47 75/75/75 
f 36/36/36 50/50/50 63/63/63 
f 74/74/74 76/76/76 75/75/75 
f 76/76/76 74/74/74 77/77/77 
f 75/75/75 73/73/73 63/63/63 
f 73/73/73 75/75/75 76/76/76 
f 78/78/78 79/79/79 18/80/18 
f 18/80/18 17/81/17 78/78/78 
f 24/82/24 18/80/18 79/79/79 
f 80/83/80 81/84/81 79/79/79 
f 79/79/79 78/78/78 80/83/80 
f 77/77/77 82/85/82 76/76/76 
f 82/85/82 77/77/77 83/86/83 
f 83/86/83 77/77/77 84/87/84 
f 84/87/84 85/88/85 83/86/83 
f 86/89/86 87/90/87 82/85/82 
f 82/85/82 83/86/83 86/89/86 
f 88/91/88 86/89/86 83/86/83 
f 83/86/83 85/88/85 88/91/88 
f 89/92/89 90/93/90 72/72/72 
f 72/72/72 73/73/73 89/92/89 
f 76/76/76 82/85/82 89/92/89 
f 89/92/89 73/73/73 76/76/76 
f 89/92/89 91/94/91 90/93/90 
f 91/94/91 89/92/89 92/95/92 
f 91/94/91 70/70/70 90/93/90 
f 70/70/70 91/94/91 71/71/71 
f 87/90/87 92/95/92 89/92/89 
f 89/92/89 82/85/82 87/90/87 
f 59/96/59 68/68/68 67/67/67 
f 68/68/68 59/96/59 56/97/56 
f 56/98/56 65/99/65 93/100/93 
f 56/98/56 93/100/93 69/69/69 
f 56/98/56 69/69/69 68/68/68 
f 94/101/94 93/100/93 65/102/65 
f 65/102/65 70/103/70 94/101/94 
f 70/103/70 59/96/59 66/66/66 
f 67/67/67 66/66/66 59/96/59 
f 70/103/70 66/66/66 94/101/94 
f 61/61/61 60/60/60 6/6/6 
f 62/62/62 6/6/6 60/60/60 
f 6/6/6 62/62/62 4/4/4 
f 2/2/2 4/4/4 62/62/62 
f 62/62/62 71/71/71 2/2/2 
f 91/94/91 2/2/2 71/71/71 
f 2/2/2 91/94/91 13/13/13 
f 87/90/87 86/89/86 7/7/7 
f 8/8/8 7/7/7 86/89/86 
f 86/89/86 88/91/88 8/8/8 
f 12/12/12 13/13/13 91/94/91 
f 91/94/91 92/95/92 12/12/12 
f 7/7/7 12/12/12 92/95/92 
f 92/95/92 87/90/87 7/7/7 
f 66/66/66 69/69/69 93/100/93 
f 93/100/93 94/101/94 66/66/66 
f 65/65/65 72/72/72 90/93/90 
f 90/93/90 70/70/70 65/65/65 
f 13/13/13 11/11/11 14/14/14 
f 3/3/3 2/2/2 13/13/13 
f 95/1/95 96/3/96 97/2/97 
f 97/2/97 98/4/98 95/1/95 
f 5/5/5 95/1/95 98/4/98 
f 98/4/98 6/6/6 5/5/5 
f 99/7/99 9/9/9 8/8/8 
f 9/9/9 99/7/99 100/10/100 
f 101/11/101 100/10/100 99/7/99 
f 99/7/99 102/12/102 101/11/101 
f 103/13/103 101/11/101 102/12/102 
f 103/13/103 96/3/96 104/14/104 
f 105/15/105 17/17/17 16/16/16 
f 17/17/17 105/15/105 106/18/106 
f 107/19/107 16/16/16 20/20/20 
f 16/16/16 107/19/107 105/15/105 
f 108/21/108 20/20/20 22/22/22 
f 20/20/20 108/21/108 107/19/107 
f 109/23/109 106/18/106 105/15/105 
f 106/18/106 109/23/109 110/24/110 
f 111/25/111 105/15/105 107/19/107 
f 105/15/105 111/25/111 109/23/109 
f 112/26/112 107/19/107 108/21/108 
f 107/19/107 112/26/112 111/25/111 
f 27/27/27 29/29/29 113/28/113 
f 113/28/113 114/30/114 27/27/27 
f 31/31/31 27/27/27 114/30/114 
f 114/30/114 115/32/115 31/31/31 
f 33/33/33 31/31/31 115/32/115 
f 115/32/115 116/34/116 33/33/33 
f 117/35/117 113/28/113 118/36/118 
f 113/28/113 117/35/117 114/30/114 
f 119/37/119 114/30/114 117/35/117 
f 114/30/114 119/37/119 115/32/115 
f 116/34/116 115/32/115 119/37/119 
f 119/37/119 120/38/120 116/34/116 
f 108/21/108 22/22/22 39/39/39 
f 39/39/39 121/40/121 108/21/108 
f 108/21/108 121/40/121 122/41/122 
f 122/41/122 112/26/112 108/21/108 
f 123/42/123 39/39/39 43/43/43 
f 39/39/39 123/42/123 121/40/121 
f 122/41/122 121/40/121 123/42/123 
f 123/42/123 124/44/124 122/41/122 
f 123/42/123 43/43/43 33/33/33 
f 33/33/33 116/34/116 123/42/123 
f 120/38/120 123/42/123 116/34/116 
f 123/42/123 120/38/120 124/44/124 
f 111/25/111 112/26/112 122/41/122 
f 122/41/122 125/45/125 111/25/111 
f 109/23/109 111/25/111 125/45/125 
f 125/45/125 126/46/126 109/23/109 
f 127/47/127 109/23/109 126/46/126 
f 109/23/109 127/47/127 110/24/110 
f 125/45/125 122/41/122 124/44/124 
f 124/44/124 128/48/128 125/45/125 
f 126/46/126 125/45/125 128/48/128 
f 128/48/128 129/49/129 126/46/126 
f 130/50/130 126/46/126 129/49/129 
f 126/46/126 130/50/130 127/47/127 
f 128/48/128 120/38/120 119/37/119 
f 120/38/120 128/48/128 124/44/124 
f 117/35/117 128/48/128 119/37/119 
f 128/48/128 117/35/117 129/49/129 
f 130/50/130 129/49/129 117/35/117 
f 117/35/117 118/36/118 130/50/130 
f 131/51/131 29/29/29 52/52/52 
f 29/29/29 131/51/131 113/28/113 
f 132/53/132 113/28/113 131/51/131 
f 113/28/113 132/53/132 118/36/118 
f 133/54/133 52/52/52 55/55/55 
f 52/52/52 133/54/133 131/51/131 
f 134/56/134 131/51/131 133/54/133 
f 131/51/131 134/56/134 132/53/132 
f 133/54/133 55/55/55 57/57/57 
f 57/57/57 135/58/135 133/54/133 
f 134/56/134 133/54/133 135/58/135 
f 135/58/135 136/59/136 134/56/134 
f 57/57/57 61/61/61 137/60/137 
f 137/60/137 135/58/135 57/57/57 
f 135/58/135 138/62/138 136/59/136 
f 138/62/138 135/58/135 137/60/137 
f 118/36/118 139/64/139 140/63/140 
f 139/64/139 118/36/118 132/53/132 
f 132/53/132 134/56/134 141/65/141 
f 141/65/141 139/64/139 132/53/132 
f 142/66/142 143/68/143 144/67/144 
f 143/68/143 142/66/142 145/69/145 
f 146/70/146 138/62/138 147/71/147 
f 138/62/138 146/70/146 136/59/136 
f 140/63/140 139/64/139 148/72/148 
f 148/72/148 149/73/149 140/63/140 
f 141/65/141 148/72/148 139/64/139 
f 150/74/150 127/47/127 151/75/151 
f 127/47/127 150/74/150 110/24/110 
f 151/75/151 130/50/130 140/63/140 
f 130/50/130 151/75/151 127/47/127 
f 118/36/118 140/63/140 130/50/130 
f 150/74/150 151/75/151 152/76/152 
f 152/76/152 153/77/153 150/74/150 
f 151/75/151 140/63/140 149/73/149 
f 149/73/149 152/76/152 151/75/151 
f 78/78/78 106/80/106 154/79/154 
f 106/80/106 78/78/78 17/81/17 
f 110/82/110 154/79/154 106/80/106 
f 80/83/80 154/79/154 155/84/155 
f 154/79/154 80/83/80 78/78/78 
f 156/104/156 80/83/80 155/84/155 
f 153/77/153 152/76/152 157/85/157 
f 157/85/157 158/86/158 153/77/153 
f 158/86/158 84/87/84 153/77/153 
f 84/87/84 158/86/158 85/88/85 
f 159/89/159 157/85/157 160/90/160 
f 157/85/157 159/89/159 158/86/158 
f 88/91/88 158/86/158 159/89/159 
f 158/86/158 88/91/88 85/88/85 
f 161/92/161 148/72/148 162/93/162 
f 148/72/148 161/92/161 149/73/149 
f 152/76/152 161/92/161 157/85/157 
f 161/92/161 152/76/152 149/73/149 
f 161/92/161 162/93/162 163/94/163 
f 163/94/163 164/95/164 161/92/161 
f 163/94/163 162/93/162 146/70/146 
f 146/70/146 147/71/147 163/94/163 
f 160/90/160 161/92/161 164/95/164 
f 161/92/161 160/90/160 157/85/157 
f 136/96/136 144/67/144 143/68/143 
f 143/68/143 134/97/134 136/96/136 
f 134/98/134 165/100/165 141/99/141 
f 134/98/134 145/69/145 165/100/165 
f 134/98/134 143/68/143 145/69/145 
f 166/101/166 141/102/141 165/100/165 
f 141/102/141 166/101/166 146/103/146 
f 146/103/146 142/66/142 136/96/136 
f 144/67/144 136/96/136 142/66/142 
f 146/103/146 166/101/166 142/66/142 
f 61/61/61 6/6/6 137/60/137 
f 138/62/138 137/60/137 6/6/6 
f 6/6/6 98/4/98 138/62/138 
f 97/2/97 138/62/138 98/4/98 
f 138/62/138 97/2/97 147/71/147 
f 163/94/163 147/71/147 97/2/97 
f 97/2/97 103/13/103 163/94/163 
f 160/90/160 99/7/99 159/89/159 
f 8/8/8 159/89/159 99/7/99 
f 159/89/159 8/8/8 88/91/88 
f 102/12/102 163/94/163 103/13/103 
f 163/94/163 102/12/102 164/95/164 
f 99/7/99 164/95/164 102/12/102 
f 164/95/164 99/7/99 160/90/160 
f 142/66/142 165/100/165 145/69/145 
f 165/100/165 142/66/142 166/101/166 
f 141/65/141 162/93/162 148/72/148 
f 162/93/162 141/65/141 146/70/146 
f 103/13/103 104/14/104 101/11/101 
f 96/3/96 103/13/103 97/2/97 
# 307 faces

